# xmcd
#
# Track frame offsets: 
#        150
#        12524
#        29760
#        48821
#        61756
#        74930
#        92531
#        109319
#        126812
#        141646
#        160947
#        174016
#        192045
#        209226
#        226946
#        244858
#        263459
#        285540
#
# Disc length: 4035 seconds
#
# Revision: 0
# Processed by: cddbd v1.5.2PL0 Copyright (c) Steve Scherf et al.
# Submitted via: ExactAudioCopyFreeDBPlugin 1.0
#
DISCID=080fc112
DTITLE=Various Artist - New Country Rock Vol. 12
DYEAR=2016
DGENRE=Country
TTITLE0=Sean Patrick McCraw - Mud Sweat And Gears
TTITLE1=The South Austin Moonlighters - You, Love And Me
TTITLE2=The Northern Lies - Dagger Moon
TTITLE3=Nick Riggins - Tabacco
TTITLE4=John Campbelljohn - Souls For Money
TTITLE5=Fiynnville Train - On Your way
TTITLE6=Tom Gillam - Good Day In Hell
TTITLE7=Jim Pyle - Running From The Roses
TTITLE8=Jess Klein - Tell Me This Is Love
TTITLE9=Nashfield - Tonight
TTITLE10=Cassy Black - The Show
TTITLE11=Delta Moon - Jukin´
TTITLE12=Stoney LarRue - Million Dollar Blues
TTITLE13=Cody McCarver - Run and Hide
TTITLE14=Leeroy Stagger - Something Beautiful
TTITLE15=William Clark Green - Remedy
TTITLE16=Miko Marks - Feelin´ The Rain
TTITLE17=Mark Shelton - Brave New World
EXTD=
EXTT0=
EXTT1=
EXTT2=
EXTT3=
EXTT4=
EXTT5=
EXTT6=
EXTT7=
EXTT8=
EXTT9=
EXTT10=
EXTT11=
EXTT12=
EXTT13=
EXTT14=
EXTT15=
EXTT16=
EXTT17=
PLAYORDER=
